# AST/ASF file generated using VICON BodyLanguage
# -----------------------------------------------
:version 1.10
:name VICON
:units
  mass 1.0
  length 0.45
  angle deg
:documentation
   .ast/.asf automatically generated from VICON data using
   VICON BodyBuilder and BodyLanguage model FoxedUp or BRILLIANT.MOD
:root
   order TX TY TZ RX RY RZ
   axis XYZ
   position 0 0 0  
   orientation 0 0 0 
:bonedata
  begin
     id 1 
     name lhipjoint
     direction 0.623529 -0.717805 0.309788 
     length 2.23224 
     axis 0 0 0  XYZ
  end
  begin
     id 2 
     name lfemur
     direction 0.34202 -0.939693 0  
     length 7.11402  
     axis 0 0 20  XYZ
    dof rx ry rz
    limits (-160.0 20.0)
           (-70.0 70.0)
           (-60.0 70.0)
  end
  begin
     id 3 
     name ltibia
     direction 0.34202 -0.939693 0   
     length 6.78496   
     axis 0 0 20   XYZ
    dof rx
    limits (-10.0 170.0)
  end
  begin
     id 4 
     name lfoot
     direction 0.125078 -0.343648 0.930732   
     length 1.84054   
     axis -90 7.62852e-016 20   XYZ
    dof rx rz
    limits (-45.0 90.0)
           (-70.0 20.0)
  end
  begin
     id 5 
     name ltoes
     direction 1.53565e-011 -4.21893e-011 1   
     length 0.916474   
     axis -90 7.62852e-016 20   XYZ
    dof rx
    limits (-90.0 20.0)
  end
  begin
     id 6 
     name rhipjoint
     direction -0.564688 -0.757748 0.327026   
     length 2.11457  
     axis 0 0 0  XYZ 
  end
  begin
     id 7 
     name rfemur
     direction -0.34202 -0.939693 0   
     length 7.14609   
     axis 0 0 -20   XYZ
    dof rx ry rz
    limits (-160.0 20.0)
           (-70.0 70.0)
           (-70.0 60.0)
  end
  begin
     id 8 
     name rtibia
     direction -0.34202 -0.939693 0   
     length 6.78101   
     axis 0 0 -20   XYZ
    dof rx
    limits (-10.0 170.0)
 end
 begin
     id 9 
     name rfoot
     direction -0.0992671 -0.272734 0.956955   
     length 1.96168  
     axis -90 -7.62852e-016 -20   XYZ
    dof rx rz
    limits (-45.0 90.0)
           (-20.0 70.0)
  end
  begin
     id 10 
     name rtoes
     direction -1.5356e-011 -4.21891e-011 1   
     length 0.982933   
     axis -90 -7.62852e-016 -20   XYZ
    dof rx
    limits (-90.0 20.0)
  end
  begin
     id 11 
     name lowerback
     direction -0.00596953 0.998668 0.0512524   
     length 1.87557   
     axis 0 0 0   XYZ
    dof rx ry rz
    limits (-20.0 45.0)
           (-30.0 30.0)
           (-30.0 30.0)
  end
  begin
     id 12 
     name upperback
     direction 0.00584879 0.999652 0.0257308   
     length 1.87883   
     axis 0 0 0   XYZ
    dof rx ry rz
    limits (-20.0 45.0)
           (-30.0 30.0)
           (-30.0 30.0)
  end
  begin
     id 13 
     name thorax
     direction 0.010104 0.999947 0.00178881   
     length 1.87779   
     axis 0 0 0   XYZ
    dof rx ry rz
    limits (-20.0 45.0)
           (-30.0 30.0)
           (-30.0 30.0)
  end
  begin
     id 14 
     name lowerneck
     direction 0.0120771 0.995934 -0.0892773   
     length 1.40897   
     axis 0 0 0   XYZ
    dof rx ry rz
    limits (-20.0 45.0)
           (-30.0 30.0)
           (-30.0 30.0)
  end
  begin
     id 15 
     name upperneck
     direction -0.030568 0.999465 -0.0116366   
     length 1.38661   
     axis 0 0 0   XYZ
    dof rx ry rz
    limits (-20.0 45.0)
           (-30.0 30.0)
           (-30.0 30.0)
  end
  begin
     id 16
     name head
     direction -0.0170715 0.999854 -0.00104426  
     length 1.47052  
     axis 0 0 0   XYZ
    dof rx ry rz
    limits (-20.0 45.0)
           (-30.0 30.0)
           (-30.0 30.0)
  end
  begin
     id 17 
     name lclavicle
     direction 0.977763 0.206143 0.038532  
     length 3.02424  
     axis 0 0 0   XYZ
    dof ry rz
    limits (-20.0 10.0)
           (0.0 20.0)
  end
  begin
     id 18 
     name lhumerus
     direction 1 -4.48965e-011 -2.62654e-027   
     length 4.68382   
     axis 180 -30 -90   XYZ
    dof rx ry rz
    limits (-60.0 90.0)
           (-90.0 90.0)
           (-90.0 90.0)
  end
  begin
     id 19
     name lradius
     direction 1 -4.48973e-011 -1.54954e-027   
     length 2.98124   
     axis 180 -30 -90   XYZ
    dof rx
    limits (-10.0 170.0)
  end
  begin
     id 20
     name lwrist
     direction 1 -4.48959e-011 7.20928e-028   
     length 1.49062   
     axis -5.52449e-016 90 90   XYZ
    dof ry
    limits (-180.0 0.0)
 end
  begin
     id 21 
     name lhand
     direction 1 -4.48971e-011 1.44186e-027   
     length 0.707595   
     axis -9.20027e-016 90 90   XYZ
    dof rx rz
    limits (-90.0 90.0)
           (-45.0 45.0)
  end
  begin
     id 22 
     name lfingers
     direction 1 -4.48985e-011 2.88371e-027   
     length 0.570481   
     axis -1.84005e-015 90 90   XYZ
    dof rx
    limits (0.0 90.0)
  end
  begin
     id 23
     name lthumb
     direction 0.707107 -6.34929e-011 0.707107   
     length 0.819101   
     axis -90 45 2.85299e-015   XYZ
    dof rx rz
    limits (-45.0 45.0)
           (-45.0 45.0)
  end
  begin
     id 24 
     name rclavicle
     direction -0.958661 0.284411 -0.00895327   
     length 3.11921  
     axis 0 0 0   XYZ 
    dof ry rz
    limits (-10.0 20.0)
           (-20.0 0.0)
  end
  begin
     id 25 
     name rhumerus
     direction -1 -4.48963e-011 -4.22193e-027  
     length 4.75876   
     axis 180 30 90   XYZ
    dof rx ry rz
    limits (-90.0 60.0)
           (-90.0 90.0)
           (-90.0 90.0)
  end
  begin
     id 26 
     name rradius
     direction -1 -4.48968e-011 -1.07616e-027   
     length 2.93293   
     axis 180 30 90   XYZ
    dof rx
    limits (-10.0 170.0)
  end
  begin
     id 27 
     name rwrist
     direction -1 -4.48965e-011 7.20928e-028   
     length 1.46647   
     axis -5.52449e-016 -90 -90   XYZ
    dof ry
    limits (-180.0 0.0)
  end
  begin
     id 28
     name rhand
     direction -1 -4.48971e-011 1.44186e-027   
     length 0.831748   
     axis -9.20027e-016 -90 -90   XYZ
    dof rx rz
    limits (-90.0 90.0)
           (-45.0 45.0)
  end
  begin
     id 29
     name rfingers
     direction -1 -4.48961e-011 2.88371e-027   
     length 0.670577   
     axis -1.84005e-015 -90 -90   XYZ
    dof rx
    limits (0.0 90.0)
  end
  begin
     id 30
     name rthumb
     direction -0.707107 -6.34929e-011 0.707107   
     length 0.962818   
     axis -90 -45 -2.85299e-015   XYZ
    dof rx rz
    limits (-45.0 45.0)
           (-45.0 45.0)
  end
:hierarchy
  begin
    root lhipjoint rhipjoint lowerback
    lhipjoint lfemur
    lfemur ltibia
    ltibia lfoot
    lfoot ltoes
    rhipjoint rfemur
    rfemur rtibia
    rtibia rfoot
    rfoot rtoes
    lowerback upperback
    upperback thorax
    thorax lowerneck lclavicle rclavicle
    lowerneck upperneck
    upperneck head
    lclavicle lhumerus
    lhumerus lradius
    lradius lwrist
    lwrist lhand lthumb
    lhand lfingers
    rclavicle rhumerus
    rhumerus rradius
    rradius rwrist
    rwrist rhand rthumb
    rhand rfingers
  end

#!OML:ASF E:\id_vita\Project 1\Capture day 1\Session 1\Female.ASF
:FULLY-SPECIFIED
:DEGREES
557
root 21.1782 16.681 -5.68279 -153.751 -4.97978 -180.657
lowerback -15.5967 -1.26267 -2.25604
upperback -5.93127 -2.18175 0.833027
thorax 2.54783 -1.40722 1.75152
lowerneck 2.00038 -0.443797 -7.16419
upperneck -5.95138 -0.609751 6.99865
head -2.24404 -0.373429 3.61281
rclavicle -1.50176e-014 -1.44119e-015
rhumerus 53.3256 -7.12244 -35.8056
rradius 54.533
rwrist 13.5749
rhand -27.9305 34.5317
rfingers 7.12502
rthumb -1.31876 4.55604
lclavicle -1.50176e-014 -1.44119e-015
lhumerus 66.1712 4.33484 33.737
lradius 38.6312
lwrist -18.4573
lhand -36.786 16.0369
lfingers 7.12502
lthumb -9.86823 45.7856
rfemur -34.5762 11.8397 18.8799
rtibia 24.7818
rfoot -8.86271 -15.7013
rtoes 3.45417
lfemur -11.7343 -8.48254 -16.9298
ltibia 22.4036
lfoot -10.2126 -2.87111
ltoes -14.7388
558
root 21.1793 16.6883 -5.6882 -153.717 -4.88206 -180.681
lowerback -15.6112 -1.23393 -2.30292
upperback -5.98445 -2.14778 0.847026
thorax 2.49938 -1.39329 1.79938
lowerneck 1.9987 -0.450952 -7.42422
upperneck -5.85905 -0.621545 7.15312
head -2.21424 -0.375998 3.71683
rclavicle 8.30237e-015 1.58779e-014
rhumerus 53.4827 -7.09624 -35.7901
rradius 54.2022
rwrist 13.6477
rhand -27.7004 35.0816
rfingers 7.12502
rthumb -1.09652 5.10462
lclavicle 8.30237e-015 1.58779e-014
lhumerus 66.2885 4.25633 34.1789
lradius 38.3164
lwrist -18.6349
lhand -37.0311 15.754
lfingers 7.12502
lthumb -10.1046 45.4913
rfemur -34.5596 12.1252 18.6501
rtibia 24.7363
rfoot -9.20408 -15.6265
rtoes 5.76713
lfemur -11.7533 -8.45638 -16.9694
ltibia 22.4019
lfoot -10.1806 -2.93949
ltoes -14.1731
559
root 21.1817 16.6851 -5.69157 -153.714 -4.84609 -180.679
lowerback -15.6423 -1.27632 -2.28651
upperback -6.00141 -2.21131 0.871748
thorax 2.50148 -1.42672 1.80414
lowerneck 2.0218 -0.420219 -7.61211
upperneck -5.81613 -0.584174 7.2385
head -2.20889 -0.354702 3.78286
rclavicle 1.9981e-014 5.46658e-015
rhumerus 53.6952 -6.90247 -35.6643
rradius 53.9955
rwrist 13.4644
rhand -27.7473 35.1093
rfingers 7.12502
rthumb -1.14188 5.13258
lclavicle 1.9981e-014 5.46658e-015
lhumerus 66.274 4.30545 34.4553
lradius 38.1909
lwrist -18.6378
lhand -36.7901 16.0781
lfingers 7.12502
lthumb -9.87218 45.8267
rfemur -34.5463 11.9031 18.7989
rtibia 24.7037
rfoot -8.99811 -15.5057
rtoes 4.39087
lfemur -11.7413 -8.45911 -16.9626
ltibia 22.3946
lfoot -10.1574 -2.93864
ltoes -13.9082
560
root 21.1849 16.6689 -5.69259 -153.727 -4.81622 -180.626
lowerback -15.6845 -1.28598 -2.29167
upperback -5.99799 -2.22385 0.869665
thorax 2.52811 -1.43387 1.80125
lowerneck 1.98991 -0.445575 -7.45686
upperneck -5.71892 -0.615743 7.1366
head -2.16642 -0.369983 3.71445
rclavicle 3.28927e-015 1.36664e-015
rhumerus 53.828 -6.73638 -35.5057
rradius 53.7693
rwrist 13.3347
rhand -27.8746 34.9456
rfingers 7.12502
rthumb -1.26477 4.96956
lclavicle 3.28927e-015 1.36664e-015
lhumerus 66.4239 4.34302 34.9328
lradius 37.9807
lwrist -18.9453
lhand -36.3972 16.4421
lfingers 7.12502
lthumb -9.49309 46.2083
rfemur -34.5283 11.1991 19.3521
rtibia 24.5717
rfoot -7.90386 -15.4104
rtoes -2.18514
lfemur -11.7651 -8.49294 -16.9188
ltibia 22.5195
lfoot -10.1814 -2.77664
ltoes -14.1384
561
root 21.1874 16.6678 -5.69688 -153.75 -4.7688 -180.588
lowerback -15.6941 -1.27022 -2.34459
upperback -6.00205 -2.19704 0.885885
thorax 2.52963 -1.42046 1.85276
lowerneck 1.93773 -0.484726 -7.35449
upperneck -5.60985 -0.66571 7.05768
head -2.11534 -0.393425 3.66459
rclavicle 3.91668e-015 -5.93869e-015
rhumerus 53.9237 -6.67203 -35.3791
rradius 53.5364
rwrist 13.3378
rhand -27.8861 34.8994
rfingers 7.12502
rthumb -1.27587 4.92348
lclavicle 3.91668e-015 -5.93869e-015
lhumerus 66.6331 4.34888 35.5862
lradius 37.553
lwrist -19.5753
lhand -36.3197 16.0306
lfingers 7.12502
lthumb -9.41826 45.8001
rfemur -34.43 11.2967 19.3688
rtibia 24.437
rfoot -7.88968 -15.4249
rtoes -1.41782
lfemur -11.7812 -8.48803 -16.8982
ltibia 22.6616
lfoot -10.2396 -2.725
ltoes -14.3901
562
root 21.189 16.668 -5.70011 -153.76 -4.73966 -180.54
lowerback -15.7064 -1.33443 -2.34017
upperback -6.01194 -2.28873 0.982224
thorax 2.534 -1.46638 1.93474
lowerneck 1.87862 -0.407924 -7.58052
upperneck -5.52717 -0.5637 7.15442
head -2.08712 -0.338395 3.73896
rclavicle 5.23673e-015 -2.65874e-015
rhumerus 54.2152 -6.52476 -35.3303
rradius 53.3189
rwrist 13.3749
rhand -28.0588 34.9942
rfingers 7.12502
rthumb -1.44266 5.01937
lclavicle 5.23673e-015 -2.65874e-015
lhumerus 66.4652 4.49499 35.8662
lradius 37.3006
lwrist -19.8764
lhand -36.5359 15.2286
lfingers 7.12502
lthumb -9.62684 44.9887
rfemur -34.3668 11.4192 19.3839
rtibia 24.3325
rfoot -7.8193 -15.4464
rtoes -1.16075
lfemur -11.8117 -8.40991 -16.8468
ltibia 22.7784
lfoot -10.3042 -2.81916
ltoes -14.6493
563
root 21.1908 16.6685 -5.70384 -153.688 -4.65479 -180.54
lowerback -15.8162 -1.44011 -2.33189
upperback -6.03965 -2.44111 1.0693
thorax 2.57412 -1.5461 1.99104
lowerneck 1.83826 -0.265616 -7.92221
upperneck -5.47637 -0.376193 7.30086
head -2.08182 -0.239845 3.8535
rclavicle 2.07916e-014 1.59028e-015
rhumerus 54.6356 -6.24421 -35.3522
rradius 53.019
rwrist 13.3338
rhand -28.4547 35.2922
rfingers 7.12502
rthumb -1.82507 5.32027
lclavicle 2.07916e-014 1.59028e-015
lhumerus 66.1064 4.70846 35.8964
lradius 37.2261
lwrist -19.8395
lhand -36.7846 14.8262
lfingers 7.12502
lthumb -9.86682 44.575
rfemur -34.4339 11.4136 19.3712
rtibia 24.3251
rfoot -7.9116 -15.2954
rtoes -0.824562
lfemur -11.8671 -8.31836 -16.8623
ltibia 22.7849
lfoot -10.2788 -2.80332
ltoes -14.919
564
root 21.1909 16.6687 -5.70775 -153.62 -4.5806 -180.56
lowerback -15.9269 -0.995266 -2.32563
upperback -6.03229 -1.837 0.61946
thorax 2.59348 -1.25124 1.62119
lowerneck 1.92247 -0.675193 -6.9318
upperneck -5.53314 -0.904621 7.18266
head -2.06634 -0.526644 3.62886
rclavicle -1.86671e-014 6.03808e-015
rhumerus 53.5613 -7.01956 -35.1494
rradius 52.7356
rwrist 13.3562
rhand -28.7783 35.6126
rfingers 7.12502
rthumb -2.13756 5.64358
lclavicle -1.86671e-014 6.03808e-015
lhumerus 67.3174 3.88532 36.2851
lradius 37.0469
lwrist -19.8219
lhand -36.9791 14.7755
lfingers 7.12502
lthumb -10.0545 44.5153
rfemur -34.4892 11.3671 19.3475
rtibia 24.3045
rfoot -7.95518 -15.1642
rtoes -0.808307
lfemur -11.9285 -8.21374 -16.8989
ltibia 22.8002
lfoot -10.2517 -2.80828
ltoes -15.0945
565
root 21.1936 16.6691 -5.71124 -153.657 -4.57737 -180.524
lowerback -15.9164 -1.15127 -2.17136
upperback -6.06137 -2.07612 0.713406
thorax 2.56769 -1.37269 1.59019
lowerneck 1.8825 -0.481175 -7.38725
upperneck -5.38375 -0.650267 7.38336
head -2.03305 -0.392253 3.78128
rclavicle 1.15233e-015 6.33626e-015
rhumerus 54.0462 -6.65421 -35.4905
rradius 52.5501
rwrist 13.4538
rhand -28.8634 35.9659
rfingers 7.12502
rthumb -2.21974 5.99767
lclavicle 1.15233e-015 6.33626e-015
lhumerus 66.904 4.15016 36.3171
lradius 36.9027
lwrist -19.9331
lhand -37.0252 14.764
lfingers 7.12502
lthumb -10.0989 44.5017
rfemur -34.422 11.3451 19.4324
rtibia 24.271
rfoot -7.93804 -15.1564
rtoes -1.35935
lfemur -11.8959 -8.04967 -16.84
ltibia 22.8223
lfoot -10.2487 -3.02497
ltoes -15.3742
